<svg xmlns="http://www.w3.org/2000/svg" xmlns:xlink="http://www.w3.org/1999/xlink" width="464" height="241" contentStyleType="text/css" preserveAspectRatio="none" style="width:464px;height:241px;background:#fff" version="1.1" viewBox="0 0 464 241" zoomAndPan="magnify"><g><g id="elem_SchedulerGUI"><rect id="SchedulerGUI" width="194" height="227.266" x="7" y="7" fill="#F1F1F1" codeLine="1" rx="2.5" ry="2.5" style="stroke:#181818;stroke-width:.5"/><ellipse cx="52.25" cy="23" fill="#ADD1B2" rx="11" ry="11" style="stroke:#181818;stroke-width:1"/><path fill="#000" d="M54.5938,18.6719 C53.6563,18.2344 53.0625,18.0938 52.1875,18.0938 C49.5625,18.0938 47.5625,20.1719 47.5625,22.8906 L47.5625,24.0156 C47.5625,26.5938 49.6719,28.4844 52.5625,28.4844 C53.7813,28.4844 54.9375,28.1875 55.6875,27.6406 C56.2656,27.2344 56.5938,26.7813 56.5938,26.3906 C56.5938,25.9375 56.2031,25.5469 55.7344,25.5469 C55.5156,25.5469 55.3125,25.625 55.125,25.8125 C54.6719,26.2969 54.6719,26.2969 54.4844,26.3906 C54.0625,26.6563 53.375,26.7813 52.6094,26.7813 C50.5625,26.7813 49.2656,25.6875 49.2656,23.9844 L49.2656,22.8906 C49.2656,21.1094 50.5156,19.7969 52.25,19.7969 C52.8281,19.7969 53.4375,19.9531 53.9063,20.2031 C54.3906,20.4844 54.5625,20.7031 54.6563,21.1094 C54.7188,21.5156 54.75,21.6406 54.8906,21.7656 C55.0313,21.9063 55.2656,22.0156 55.4844,22.0156 C55.75,22.0156 56.0156,21.875 56.1875,21.6563 C56.2969,21.5 56.3281,21.3125 56.3281,20.8906 L56.3281,19.4688 C56.3281,19.0313 56.3125,18.9063 56.2188,18.75 C56.0625,18.4844 55.7813,18.3438 55.4844,18.3438 C55.1875,18.3438 54.9844,18.4375 54.7656,18.75 L54.5938,18.6719 Z"/><text x="72.75" y="27.847" fill="#000" font-family="sans-serif" font-size="14" lengthAdjust="spacing" textLength="95">SchedulerGUI</text><line style="stroke:#181818;stroke-width:.5" x1="8" x2="200" y1="39" y2="39"/><rect width="6" height="6" x="15" fill="none" style="stroke:#c82930;stroke-width:1" y="49.648"/><text x="27" y="55.995" fill="#000" font-family="sans-serif" font-size="14" lengthAdjust="spacing" textLength="116">tasks: List[Task]</text><rect width="6" height="6" x="15" fill="none" style="stroke:#c82930;stroke-width:1" y="65.945"/><text x="27" y="72.292" fill="#000" font-family="sans-serif" font-size="14" lengthAdjust="spacing" textLength="168">selected_algorithm: str</text><line style="stroke:#181818;stroke-width:.5" x1="8" x2="200" y1="79.594" y2="79.594"/><ellipse cx="18" cy="93.242" fill="#84BE84" rx="3" ry="3" style="stroke:#038048;stroke-width:1"/><text x="27" y="96.589" fill="#000" font-family="sans-serif" font-size="14" lengthAdjust="spacing" textLength="74">add_task()</text><ellipse cx="18" cy="109.539" fill="#84BE84" rx="3" ry="3" style="stroke:#038048;stroke-width:1"/><text x="27" y="112.886" fill="#000" font-family="sans-serif" font-size="14" lengthAdjust="spacing" textLength="103">remove_task()</text><ellipse cx="18" cy="125.836" fill="#84BE84" rx="3" ry="3" style="stroke:#038048;stroke-width:1"/><text x="27" y="129.183" fill="#000" font-family="sans-serif" font-size="14" lengthAdjust="spacing" textLength="77">edit_task()</text><ellipse cx="18" cy="142.133" fill="#84BE84" rx="3" ry="3" style="stroke:#038048;stroke-width:1"/><text x="27" y="145.48" fill="#000" font-family="sans-serif" font-size="14" lengthAdjust="spacing" textLength="87">save_tasks()</text><ellipse cx="18" cy="158.43" fill="#84BE84" rx="3" ry="3" style="stroke:#038048;stroke-width:1"/><text x="27" y="161.776" fill="#000" font-family="sans-serif" font-size="14" lengthAdjust="spacing" textLength="85">load_tasks()</text><ellipse cx="18" cy="174.727" fill="#84BE84" rx="3" ry="3" style="stroke:#038048;stroke-width:1"/><text x="27" y="178.073" fill="#000" font-family="sans-serif" font-size="14" lengthAdjust="spacing" textLength="118">schedule_tasks()</text><ellipse cx="18" cy="191.023" fill="#84BE84" rx="3" ry="3" style="stroke:#038048;stroke-width:1"/><text x="27" y="194.37" fill="#000" font-family="sans-serif" font-size="14" lengthAdjust="spacing" textLength="132">plot_gantt_chart()</text><ellipse cx="18" cy="207.32" fill="#84BE84" rx="3" ry="3" style="stroke:#038048;stroke-width:1"/><text x="27" y="210.667" fill="#000" font-family="sans-serif" font-size="14" lengthAdjust="spacing" textLength="135">view_task_details()</text><rect width="6" height="6" x="15" fill="#F24D5C" style="stroke:#c82930;stroke-width:1" y="220.617"/><text x="27" y="226.964" fill="#000" font-family="sans-serif" font-size="14" lengthAdjust="spacing" textLength="120">create_widgets()</text></g><g id="elem_Task"><rect id="Task" width="153" height="145.781" x="304.5" y="47.5" fill="#F1F1F1" codeLine="15" rx="2.5" ry="2.5" style="stroke:#181818;stroke-width:.5"/><ellipse cx="360.25" cy="63.5" fill="#ADD1B2" rx="11" ry="11" style="stroke:#181818;stroke-width:1"/><path fill="#000" d="M362.5938,59.1719 C361.6563,58.7344 361.0625,58.5938 360.1875,58.5938 C357.5625,58.5938 355.5625,60.6719 355.5625,63.3906 L355.5625,64.5156 C355.5625,67.0938 357.6719,68.9844 360.5625,68.9844 C361.7813,68.9844 362.9375,68.6875 363.6875,68.1406 C364.2656,67.7344 364.5938,67.2813 364.5938,66.8906 C364.5938,66.4375 364.2031,66.0469 363.7344,66.0469 C363.5156,66.0469 363.3125,66.125 363.125,66.3125 C362.6719,66.7969 362.6719,66.7969 362.4844,66.8906 C362.0625,67.1563 361.375,67.2813 360.6094,67.2813 C358.5625,67.2813 357.2656,66.1875 357.2656,64.4844 L357.2656,63.3906 C357.2656,61.6094 358.5156,60.2969 360.25,60.2969 C360.8281,60.2969 361.4375,60.4531 361.9063,60.7031 C362.3906,60.9844 362.5625,61.2031 362.6563,61.6094 C362.7188,62.0156 362.75,62.1406 362.8906,62.2656 C363.0313,62.4063 363.2656,62.5156 363.4844,62.5156 C363.75,62.5156 364.0156,62.375 364.1875,62.1563 C364.2969,62 364.3281,61.8125 364.3281,61.3906 L364.3281,59.9688 C364.3281,59.5313 364.3125,59.4063 364.2188,59.25 C364.0625,58.9844 363.7813,58.8438 363.4844,58.8438 C363.1875,58.8438 362.9844,58.9375 362.7656,59.25 L362.5938,59.1719 Z"/><text x="380.75" y="68.347" fill="#000" font-family="sans-serif" font-size="14" lengthAdjust="spacing" textLength="33">Task</text><line style="stroke:#181818;stroke-width:.5" x1="305.5" x2="456.5" y1="79.5" y2="79.5"/><rect width="6" height="6" x="312.5" fill="none" style="stroke:#c82930;stroke-width:1" y="90.148"/><text x="324.5" y="96.495" fill="#000" font-family="sans-serif" font-size="14" lengthAdjust="spacing" textLength="69">name: str</text><rect width="6" height="6" x="312.5" fill="none" style="stroke:#c82930;stroke-width:1" y="106.445"/><text x="324.5" y="112.792" fill="#000" font-family="sans-serif" font-size="14" lengthAdjust="spacing" textLength="114">arrival_time: int</text><rect width="6" height="6" x="312.5" fill="none" style="stroke:#c82930;stroke-width:1" y="122.742"/><text x="324.5" y="129.089" fill="#000" font-family="sans-serif" font-size="14" lengthAdjust="spacing" textLength="90">deadline: int</text><line style="stroke:#181818;stroke-width:.5" x1="305.5" x2="456.5" y1="136.391" y2="136.391"/><ellipse cx="315.5" cy="150.039" fill="#84BE84" rx="3" ry="3" style="stroke:#038048;stroke-width:1"/><text x="324.5" y="153.386" fill="#000" font-family="sans-serif" font-size="14" lengthAdjust="spacing" textLength="82">get_name()</text><ellipse cx="315.5" cy="166.336" fill="#84BE84" rx="3" ry="3" style="stroke:#038048;stroke-width:1"/><text x="324.5" y="169.683" fill="#000" font-family="sans-serif" font-size="14" lengthAdjust="spacing" textLength="127">get_arrival_time()</text><ellipse cx="315.5" cy="182.633" fill="#84BE84" rx="3" ry="3" style="stroke:#038048;stroke-width:1"/><text x="324.5" y="185.98" fill="#000" font-family="sans-serif" font-size="14" lengthAdjust="spacing" textLength="103">get_deadline()</text></g><g id="link_SchedulerGUI_Task"><path id="SchedulerGUI-to-Task" fill="none" d="M201.27,120.5 C235.098,120.5 266.536,120.5 298.448,120.5" codeLine="24" style="stroke:#181818;stroke-width:1"/><polygon fill="#181818" points="304.448 120.5 295.448 116.5 299.448 120.5 295.448 124.5 304.448 120.5" style="stroke:#181818;stroke-width:1"/><polygon fill="#000" points="228.25 109.066 219.205 106.127 219.205 112.005 228.25 109.066" style="stroke:#000;stroke-width:1"/><text x="232.25" y="113.567" fill="#000" font-family="sans-serif" font-size="13" lengthAdjust="spacing" textLength="54">contains</text></g></g></svg>